<svg width="307" height="58" viewBox="0 0 307 58" fill="none" xmlns="http://www.w3.org/2000/svg">
<g clip-path="url(#clip0_2134_51)">
<path d="M-12.7957 96.8224C-28.2013 96.8224 -40.7061 84.7876 -40.7061 70.045V-5.99991C-40.7061 -20.7801 -28.2013 -32.7773 -12.7957 -32.7773H318.797C334.203 -32.7773 346.747 -20.7425 346.747 -5.99991V96.86H-12.7957V96.8224Z" fill="white"/>
<path fill-rule="evenodd" clip-rule="evenodd" d="M272.399 12.4131H286.041L306.542 38.5512H292.901L303.093 51.639H286.041L275.849 38.5512H282.63L272.438 25.4633H282.63L272.399 12.4131Z" fill="#CFCFDE"/>
<path fill-rule="evenodd" clip-rule="evenodd" d="M272.399 12.4131H258.757L238.256 38.5512H251.897L241.705 51.639H258.757L268.949 38.5512H262.089L272.399 25.5009H262.207L272.399 12.4131Z" fill="#CFCFDE"/>
<path fill-rule="evenodd" clip-rule="evenodd" d="M14.1352 15.0845H-0.407959V37.3113C-0.407959 48.0674 7.94164 52.2419 18.5256 52.2419C30.0112 52.2419 37.616 48.3306 37.616 36.4839V15.0469H23.308V36.7471C23.308 40.32 22.4848 42.8021 18.6824 42.8021C15.1544 42.8021 14.1352 40.2447 14.1352 36.7471V15.0845Z" fill="#CFCFDE"/>
<path fill-rule="evenodd" clip-rule="evenodd" d="M41.1797 51.6611H54.8997V35.903C54.8997 34.3987 54.8997 32.255 57.4085 32.255C59.8389 32.255 59.8389 34.3987 59.8389 35.903V51.6611H73.5589V32.7063C73.5589 27.3658 70.8541 23.7178 63.5237 23.7178C59.6429 23.7178 55.9189 25.2221 54.2725 29.0582H54.1549V24.3571H41.1797V51.6611Z" fill="#CFCFDE"/>
<path fill-rule="evenodd" clip-rule="evenodd" d="M92.0048 12.4248H78.2848V21.4885H92.0048V12.4248ZM78.2848 51.6507H92.0048V24.3468H78.2848V51.6507Z" fill="#CFCFDE"/>
<path fill-rule="evenodd" clip-rule="evenodd" d="M96.5183 51.6611H110.238V35.903C110.238 34.3987 110.238 32.255 112.747 32.255C115.06 32.255 115.06 34.3987 115.06 35.903V51.6611H128.858V35.903C128.858 34.3987 128.858 32.255 131.171 32.255C133.68 32.255 133.68 34.3987 133.68 35.903V51.6611H147.4V35.3013C147.4 29.9608 147.4 23.7178 137.404 23.7178C133.954 23.7178 129.25 25.2221 128.31 28.4189H128.231C127.094 25.1093 123.135 23.7178 119.333 23.7178C114.982 23.7178 111.258 25.2221 109.611 29.0582H109.533V24.3571H96.5575V51.6611H96.5183Z" fill="#CFCFDE"/>
<path fill-rule="evenodd" clip-rule="evenodd" d="M182.639 41.1682V39.5511C182.639 30.2993 178.758 23.7178 167.704 23.7178C156.218 23.7178 150.103 28.3436 150.103 37.4826C150.103 46.9224 156.218 52.2628 167.704 52.2628C172.526 52.2628 176.877 51.7363 180.483 50.6456V43.6504C178.366 44.7035 174.956 45.3428 171.232 45.3428C167.155 45.3428 163.902 44.553 163.627 41.1682H182.639ZM163.627 35.3765C163.431 33.2328 164.098 30.036 167.351 30.036C170.409 30.036 170.762 33.308 170.762 35.3765H163.627Z" fill="#CFCFDE"/>
<path fill-rule="evenodd" clip-rule="evenodd" d="M206.688 37.8488C206.688 40.4062 206.217 43.4525 203.356 43.4525C200.298 43.4525 199.828 40.4438 199.828 37.5856C199.828 34.7273 200.298 31.9066 203.16 31.9066C206.256 31.9066 206.688 34.7649 206.688 37.8488ZM220.055 51.6512V12.4253H206.335V27.8825H206.217C204.1 24.949 201.317 23.7079 197.593 23.7079C189.048 23.7079 185.559 30.1766 185.559 37.5856C185.559 45.4082 188.891 52.253 198.064 52.253C202.493 52.253 205.276 50.7486 207.158 46.6493H207.236V51.6512H220.055Z" fill="#CFCFDE"/>
<path fill-rule="evenodd" clip-rule="evenodd" d="M231.439 5.88086H229.166V58.1946H231.439V5.88086Z" fill="#CFCFDE"/>
</g>
<defs>
<clipPath id="clip0_2134_51">
<rect width="307" height="58" fill="white"/>
</clipPath>
</defs>
</svg>
